<?xml version="1.0" standalone="no"?>
<!DOCTYPE svg PUBLIC "-//W3C//DTD SVG 20010904//EN"
 "http://www.w3.org/TR/2001/REC-SVG-20010904/DTD/svg10.dtd">
<svg version="1.0" xmlns="http://www.w3.org/2000/svg"
 width="231.000000pt" height="231.000000pt" viewBox="0 0 231.000000 231.000000"
 preserveAspectRatio="xMidYMid meet">
<metadata>
Created by potrace 1.11, written by Peter Selinger 2001-2013
</metadata>
<g transform="translate(0.000000,231.000000) scale(0.100000,-0.100000)"
fill="#000000" stroke="none">
<path d="M600 1705 l-545 -545 545 -545 545 -545 40 41 c26 27 35 43 27 46 -6
3 -44 30 -83 60 -149 116 -270 298 -330 493 -31 100 -32 113 -33 270 -1 144 2
176 23 250 59 212 186 406 345 529 72 56 198 127 261 147 27 9 53 19 57 23 4
4 -63 77 -150 164 l-157 157 -545 -545z"/>
<path d="M1427 1850 c-262 -97 -468 -310 -556 -575 -97 -293 -43 -606 147
-854 83 -109 233 -231 267 -217 8 3 23 25 34 50 11 25 26 46 32 46 10 0 10 -3
1 -12 -7 -7 -12 -16 -12 -22 0 -5 16 5 35 24 20 19 33 40 31 47 -3 7 -1 15 4
18 6 4 10 0 10 -7 0 -16 118 101 126 124 3 10 9 16 14 13 4 -3 13 2 20 10 9
10 9 15 1 15 -6 0 -11 4 -11 9 0 5 8 7 18 4 10 -2 26 5 36 16 18 20 18 21 0
27 -236 78 -365 318 -294 546 36 118 131 226 238 270 53 22 53 23 47 58 -5 33
-4 34 10 16 8 -11 15 -25 15 -30 0 -14 212 -15 222 -1 5 6 8 4 8 -5 0 -9 27
-28 62 -44 102 -47 183 -140 228 -260 l11 -30 36 37 c36 36 37 36 18 57 -10
11 -25 18 -32 16 -7 -3 -15 -1 -18 4 -4 6 -1 10 4 10 17 0 -161 181 -187 191
-13 5 -21 13 -18 17 3 5 -60 73 -139 151 -99 99 -149 142 -160 138 -8 -4 -15
-2 -15 3 0 6 6 10 12 10 7 0 -23 36 -67 80 -44 44 -84 80 -90 79 -5 0 -45 -13
-88 -29z m-88 -145 c11 -19 16 -35 11 -35 -9 0 -40 51 -40 65 0 12 9 3 29 -30z
m105 -61 c3 -8 2 -12 -4 -9 -6 3 -10 10 -10 16 0 14 7 11 14 -7z m243 -26 c-3
-8 -6 -5 -6 6 -1 11 2 17 5 13 3 -3 4 -12 1 -19z m-308 -41 l25 -32 -32 29
c-33 31 -37 36 -24 35 4 0 18 -14 31 -32z m350 -109 c1 -5 -5 -8 -13 -8 -9 0
-12 8 -8 27 5 25 6 25 13 8 4 -11 8 -23 8 -27z m-201 -44 c2 -1 0 -4 -5 -6 -4
-3 -24 14 -43 36 l-34 41 39 -35 c22 -19 41 -36 43 -36z m246 51 c3 -9 0 -15
-9 -15 -9 0 -12 6 -9 15 4 8 7 15 9 15 2 0 5 -7 9 -15z m50 0 c3 -9 0 -15 -9
-15 -9 0 -12 6 -9 15 4 8 7 15 9 15 2 0 5 -7 9 -15z m-794 -70 c17 -9 30 -20
30 -25 0 -5 -16 0 -35 11 -51 31 -47 41 5 14z m450 -9 c0 -3 -4 -8 -10 -11 -5
-3 -10 -1 -10 4 0 6 5 11 10 11 6 0 10 -2 10 -4z m-360 -79 c9 -3 4 -6 -12 -6
-21 -1 -26 3 -21 15 3 9 9 11 12 6 3 -5 13 -12 21 -15z m220 -61 c0 -11 -19
-15 -25 -6 -3 5 1 10 9 10 9 0 16 -2 16 -4z m-83 -232 c-3 -3 -12 -4 -19 -1
-8 3 -5 6 6 6 11 1 17 -2 13 -5z m-40 -10 c-3 -3 -12 -4 -19 -1 -8 3 -5 6 6 6
11 1 17 -2 13 -5z m-279 -31 c-10 -2 -28 -2 -40 0 -13 2 -5 4 17 4 22 1 32 -1
23 -4z m112 -8 c0 -1 -9 -5 -20 -8 -12 -3 -20 0 -20 8 0 8 8 11 20 8 11 -3 20
-7 20 -8z m37 9 c-3 -3 -12 -4 -19 -1 -8 3 -5 6 6 6 11 1 17 -2 13 -5z m-47
-59 c0 -2 -7 -5 -15 -9 -9 -3 -15 0 -15 9 0 9 6 12 15 9 8 -4 15 -7 15 -9z
m220 5 c0 -5 -5 -10 -11 -10 -5 0 -7 5 -4 10 3 6 8 10 11 10 2 0 4 -4 4 -10z
m0 -110 c-8 -5 -19 -10 -25 -10 -5 0 -3 5 5 10 8 5 20 10 25 10 6 0 3 -5 -5
-10z m-35 -19 c3 -5 2 -12 -3 -15 -5 -3 -9 1 -9 9 0 17 3 19 12 6z m90 -31 c3
-5 1 -10 -4 -10 -6 0 -11 5 -11 10 0 6 2 10 4 10 3 0 8 -4 11 -10z m-251 -35
c-4 -8 -11 -12 -16 -9 -6 4 -5 10 3 15 19 12 19 11 13 -6z m30 -50 c-4 -8 -11
-12 -16 -9 -6 4 -5 10 3 15 19 12 19 11 13 -6z m276 -5 c0 -5 -4 -10 -10 -10
-5 0 -10 5 -10 10 0 6 5 10 10 10 6 0 10 -4 10 -10z m-257 -37 c-3 -7 -6 -13
-8 -13 -2 0 -5 6 -8 13 -3 8 1 14 8 14 7 0 11 -6 8 -14z m27 -43 c0 -5 -2 -10
-4 -10 -3 0 -8 5 -11 10 -3 6 -1 10 4 10 6 0 11 -4 11 -10z m-80 -10 c0 -11
-59 -44 -66 -37 -3 3 10 14 28 25 40 25 38 24 38 12z m408 -25 c-6 -14 -15
-25 -20 -25 -5 0 -6 -6 -2 -12 4 -7 3 -10 -1 -5 -5 4 -17 -1 -29 -10 -11 -10
-2 3 19 30 22 26 40 47 42 47 1 0 -3 -11 -9 -25z m-298 1 c0 -11 -19 -15 -25
-6 -3 5 1 10 9 10 9 0 16 -2 16 -4z m380 -21 c0 -2 -6 -5 -13 -8 -8 -3 -14 1
-14 8 0 7 6 11 14 8 7 -3 13 -6 13 -8z m-184 -99 c-20 -23 -36 -48 -36 -55 0
-7 -5 -9 -10 -6 -9 6 64 105 77 105 2 0 -12 -20 -31 -44z m14 -86 c0 -5 -2
-10 -4 -10 -3 0 -8 5 -11 10 -3 6 -1 10 4 10 6 0 11 -4 11 -10z"/>
<path d="M1673 1383 c-15 -3 -23 -12 -23 -26 0 -20 -1 -20 -14 -2 -13 18 -15
18 -69 -9 -187 -91 -271 -310 -197 -510 40 -105 168 -218 275 -240 28 -6 40 3
193 157 l164 164 -97 22 c-53 13 -94 25 -91 28 3 3 49 -4 102 -17 l96 -22 64
63 c73 72 74 80 27 173 -79 157 -264 251 -430 219z m174 -45 c-3 -8 -6 -5 -6
6 -1 11 2 17 5 13 3 -3 4 -12 1 -19z m-127 -7 c0 -6 -4 -13 -10 -16 -5 -3 -10
1 -10 9 0 9 5 16 10 16 6 0 10 -4 10 -9z m-30 -12 c0 -8 -53 -19 -60 -13 -7 8
17 20 40 20 11 0 20 -3 20 -7z m115 -144 c-34 -129 -36 -139 -21 -168 13 -29
13 -33 -1 -49 -9 -10 -22 -18 -29 -18 -7 0 -20 -23 -29 -51 -21 -61 -30 -59
-15 4 10 37 9 49 -4 69 -13 19 -13 27 -3 48 11 20 11 33 0 69 -7 24 -13 55
-13 68 0 15 -6 23 -17 24 -13 0 -11 3 6 10 13 5 29 8 35 5 6 -2 4 -5 -5 -5
-14 -1 -13 -8 4 -63 10 -35 21 -70 24 -78 7 -24 16 0 58 148 21 73 40 131 42
129 2 -3 -13 -66 -32 -142z m-195 125 c0 -5 -2 -10 -4 -10 -3 0 -8 5 -11 10
-3 6 -1 10 4 10 6 0 11 -4 11 -10z m140 -46 c0 -17 -9 -28 -26 -36 -22 -11
-28 -10 -40 7 -14 18 -14 18 -14 -2 0 -25 -44 -40 -66 -22 -15 13 -19 55 -5
63 4 3 6 -6 3 -19 -4 -21 -1 -25 22 -25 31 0 37 32 9 50 -16 10 -16 11 2 5 11
-4 25 -8 32 -8 7 0 14 -6 17 -14 7 -18 45 -17 52 2 4 8 0 23 -7 33 -13 15 -12
16 4 3 9 -7 17 -24 17 -37z m5 -64 c3 -5 2 -10 -4 -10 -5 0 -13 5 -16 10 -3 6
-2 10 4 10 5 0 13 -4 16 -10z m-118 -32 c-3 -8 -6 -5 -6 6 -1 11 2 17 5 13 3
-3 4 -12 1 -19z"/>
</g>
</svg>
